<mxfile host="app.diagrams.net" modified="2024-01-16T13:53:53.237Z" agent="Mozilla/5.0 (Windows NT 10.0; Win64; x64) AppleWebKit/537.36 (KHTML, like Gecko) Chrome/120.0.0.0 Safari/537.36" version="22.1.18" etag="grvulXw9gimklRK6VS3u" type="github">
  <diagram name="第 1 页" id="PIcPl-YuM69gcdUYitKa">
    <mxGraphModel>
      <root>
        <mxCell id="0" />
        <mxCell id="1" parent="0" />
      </root>
    </mxGraphModel>
  </diagram>
</mxfile>
